PathFileType	4	(X/Y/Z)	C:\Users\chris\Documents\GitHub\baseballds\vids\pitch5_Sports2D\pitch5_Sports2D_m_person01.trc
DataRate	CameraRate	NumFrames	NumMarkers	Units	OrigDataRate	OrigDataStartFrame	OrigNumFrames
30	30	6	22	m	30	55	149
Frame#	Time	Hip			RHip			RKnee			RAnkle			RBigToe			RSmallToe			RHeel			LHip			LKnee			LAnkle			LBigToe			LSmallToe			LHeel			Neck			Head			Nose			RShoulder			RElbow			RWrist			LShoulder			LElbow			LWrist		
		X1	Y1	Z1	X2	Y2	Z2	X3	Y3	Z3	X4	Y4	Z4	X5	Y5	Z5	X6	Y6	Z6	X7	Y7	Z7	X8	Y8	Z8	X9	Y9	Z9	X10	Y10	Z10	X11	Y11	Z11	X12	Y12	Z12	X13	Y13	Z13	X14	Y14	Z14	X15	Y15	Z15	X16	Y16	Z16	X17	Y17	Z17	X18	Y18	Z18	X19	Y19	Z19	X20	Y20	Z20	X21	Y21	Z21	X22	Y22	Z22
55	1.8333333333333333	0.858018316537775	0.9522802111805179	0.0	0.8093921527601587	0.9404985351985838	0.0	0.789126041441026	0.7231805730033566	0.0	0.7786187862066648	0.522851904577935	0.0	0.8231873028479497	0.45807057063797074	0.0	0.7855069979893778	0.4540963093347312	0.0	0.766537720489354	0.49326644747717213	0.0	0.9102859557105284	0.946690586246699	0.0	0.9280905529711677	0.740688827891279	0.0	0.9414644213445701	0.5616060138409091	0.0	1.0449172205217458	0.5228815602130524	0.0	1.0367858001400931	0.5329259605424568	0.0	0.9225562419492975	0.5234315129492573	0.0	0.834299178629725	1.2893413995929028	0.0	0.8902246034461604	1.422675704153704	0.0	0.9212422573947253	1.3341059506285724	0.0	0.7415822677136021	1.246250106685569	0.0	0.7001543116641781	1.0906375010439697	0.0	0.7384961121710092	0.9715377160417183	0.0	0.8878703002543835	1.2504963375736795	0.0	0.8826191260658329	1.1149341988294317	0.0	0.813777188897105	1.0111027151058287	0.0
56	1.8666666666666667	0.858967132580435	0.9520447195101047	0.0	0.8104025384279291	0.9420008927669877	0.0	0.7900108518701393	0.7232392403390634	0.0	0.778955578401205	0.5212619974808514	0.0	0.8245765750953833	0.457398777001824	0.0	0.7867877335216121	0.45341823014071175	0.0	0.7666413130613018	0.4919714553664983	0.0	0.9107231439259692	0.9480455914947232	0.0	0.9283944762758427	0.7406753828983378	0.0	0.9421874893243353	0.5602179691111214	0.0	1.0469036738892754	0.5220355882008026	0.0	1.0387908288385135	0.5314754776683301	0.0	0.9227854071507908	0.5228094197414849	0.0	0.8359118346783619	1.288498060958229	0.0	0.8920678649902501	1.4232606063585636	0.0	0.9227488398393129	1.3349662586206048	0.0	0.7429348652605229	1.2459339039426427	0.0	0.7010782323513546	1.0907699657812024	0.0	0.7384039257662441	0.9721781914309435	0.0	0.8899425585972172	1.2501316917786613	0.0	0.8828774810830002	1.1147691014343708	0.0	0.8129724425998988	1.0105423518402767	0.0
57	1.9	0.8607070402674539	0.951932781981734	0.0	0.8116715094711918	0.9409986782951952	0.0	0.7912852116226379	0.7234204861936551	0.0	0.7802066152814499	0.5193407996546174	0.0	0.82546922566854	0.45698981690331497	0.0	0.7886446577524073	0.4527930337481551	0.0	0.7670073233333847	0.48973233818721573	0.0	0.9127628503374201	0.9480110446059632	0.0	0.9291401411310668	0.7399104430015495	0.0	0.9431929878811611	0.5604813718483646	0.0	1.0475215650224736	0.5224990519487728	0.0	1.03938148589268	0.5317116079767907	0.0	0.9241945605488612	0.5231272419375292	0.0	0.8377506301682685	1.289117596712311	0.0	0.8928812153930502	1.4226139843529522	0.0	0.9251287924468634	1.334979184258311	0.0	0.7447547611813512	1.246837676844948	0.0	0.7029532821083369	1.0916964324168386	0.0	0.7393627387812027	0.9717565310872449	0.0	0.8923604112911928	1.2500610207914151	0.0	0.8855990664520724	1.1160225274072573	0.0	0.8134296365958384	1.0108462522997481	0.0
58	1.9333333333333333	0.8628096576522227	0.9518676477596244	0.0	0.8127765585932258	0.9399850087496269	0.0	0.7925898125783697	0.7234244270940423	0.0	0.781758262116043	0.5182243272612336	0.0	0.8263465009387589	0.45729086075272773	0.0	0.7908168432068738	0.45235254818687964	0.0	0.7674731608411604	0.48781187041101465	0.0	0.9147180688864115	0.9479844444549321	0.0	0.9304042066540563	0.7394870386383655	0.0	0.9444556441639336	0.5619496903338911	0.0	1.0467662174231032	0.5236348919646554	0.0	1.0386780679908645	0.5330788105946613	0.0	0.9261756549950757	0.5240731981131886	0.0	0.8396332230676898	1.2896837495572713	0.0	0.8936216664238844	1.4224780436841222	0.0	0.9273736540347303	1.3358475596269717	0.0	0.745835301609248	1.2471691900508641	0.0	0.7049193115815842	1.0914623692341663	0.0	0.7414571881629726	0.9710356585643757	0.0	0.8941126971673016	1.2501446091141455	0.0	0.8881704951696178	1.1163500246344134	0.0	0.8148138371931135	1.0106427280319041	0.0
59	1.9666666666666666	0.8645591270676635	0.9516595733481058	0.0	0.8136906762561922	0.9407132862554836	0.0	0.7934454685084188	0.7231691862196011	0.0	0.7826350757551832	0.5188551867373125	0.0	0.8276558003943668	0.4580522733543577	0.0	0.7924042093908107	0.45230705113657566	0.0	0.767528147008911	0.4875357850627277	0.0	0.9152440554993524	0.9486207203251494	0.0	0.9316301819564271	0.739734412286787	0.0	0.945576169542184	0.5630765539964111	0.0	1.0457514862327704	0.5242678441396882	0.0	1.0380731527756548	0.533770744624786	0.0	0.9275073782673355	0.5245149467363701	0.0	0.8415673513351252	1.2892540821620955	0.0	0.8947376650040801	1.4238166056124124	0.0	0.9286549351060734	1.3384349033243408	0.0	0.7461459863205303	1.2456830533360574	0.0	0.7063478101826759	1.0889660324679933	0.0	0.7443397859876383	0.9702771396244919	0.0	0.8951230451950863	1.249619445193329	0.0	0.8903067890333962	1.1153081599979526	0.0	0.8160096224174571	1.0092621796412917	0.0
60	2.0	0.8657376460748508	0.9508066889460713	0.0	0.814994546739298	0.9406075953472753	0.0	0.7940952492095098	0.7228855618275634	0.0	0.7830777736936039	0.5202703712625228	0.0	0.8291029193181311	0.45820349998158727	0.0	0.7933285557558524	0.4525126975726384	0.0	0.7678189353822418	0.4885243451579221	0.0	0.9156521774904768	0.9481622984025802	0.0	0.9329625438840159	0.7394297310300099	0.0	0.9463065091369111	0.5632816289761776	0.0	1.0457360883768476	0.5242037796982019	0.0	1.0387726024396855	0.5334331810528635	0.0	0.9281300369865949	0.5240905954151346	0.0	0.8431373056866572	1.2885779250323555	0.0	0.8956908296738231	1.4244284789394226	0.0	0.9294065221847142	1.3396539356635402	0.0	0.7467807104190048	1.2435752834852574	0.0	0.7075829674085935	1.0863840965424267	0.0	0.7472065375494702	0.9694165502286399	0.0	0.8962245553344351	1.2487315818056617	0.0	0.8941216171222179	1.1151746244888103	0.0	0.8169780643372637	1.0085039765804276	0.0
